<?xml version="1.0" standalone="no"?>
<!DOCTYPE svg PUBLIC "-//W3C//DTD SVG 20010904//EN"
 "http://www.w3.org/TR/2001/REC-SVG-20010904/DTD/svg10.dtd">
<svg version="1.0" xmlns="http://www.w3.org/2000/svg"
 width="361.000000pt" height="361.000000pt" viewBox="0 0 361.000000 361.000000"
 preserveAspectRatio="xMidYMid meet">
<metadata>
Created by potrace 1.14, written by Peter Selinger 2001-2017
</metadata>
<g transform="translate(0.000000,361.000000) scale(0.100000,-0.100000)"
fill="#000000" stroke="none">
<path d="M1771 2926 c-87 -48 -50 -186 49 -186 51 0 100 49 100 99 0 75 -83
124 -149 87z"/>
<path d="M604 2556 c-46 -46 -46 -86 0 -132 25 -24 43 -34 66 -34 44 0 100 56
100 100 0 44 -56 100 -100 100 -23 0 -41 -9 -66 -34z"/>
<path d="M823 2222 c3 -9 49 -289 103 -622 54 -333 99 -607 100 -608 5 -7 772
533 768 540 -3 4 -81 62 -175 130 -94 68 -313 225 -486 350 -173 126 -312 220
-310 210z"/>
</g>
</svg>
